<svg width="120" height="120" viewBox="0 0 120 120" fill="none" xmlns="http://www.w3.org/2000/svg">
  <!-- Background gradient -->
  <defs>
    <linearGradient id="bgAlex" x1="0%" y1="0%" x2="100%" y2="100%">
      <stop offset="0%" style="stop-color:#059669;stop-opacity:1" />
      <stop offset="100%" style="stop-color:#047857;stop-opacity:1" />
    </linearGradient>
  </defs>
  
  <!-- Background circle -->
  <circle cx="60" cy="60" r="60" fill="url(#bgAlex)"/>
  
  <!-- Face -->
  <circle cx="60" cy="45" r="18" fill="#FDBCB4"/>
  
  <!-- Hair (tech executive) -->
  <path d="M42 35 Q60 28 78 35 Q78 40 75 38 Q65 32 55 32 Q45 32 42 35" fill="#4B5563"/>
  
  <!-- Eyes -->
  <circle cx="54" cy="42" r="2" fill="#2D1B14"/>
  <circle cx="66" cy="42" r="2" fill="#2D1B14"/>
  
  <!-- Nose -->
  <circle cx="60" cy="47" r="1" fill="#F4A688"/>
  
  <!-- Mouth -->
  <path d="M57 50 Q60 52 63 50" stroke="#2D1B14" stroke-width="1" fill="none"/>
  
  <!-- Tech executive attire -->
  <path d="M45 75 Q60 70 75 75 L75 120 L45 120 Z" fill="#1F2937"/>
  <path d="M50 75 Q60 72 70 75 L70 120 L50 120 Z" fill="#FFFFFF"/>
  
  <!-- Netflix badge -->
  <circle cx="68" cy="85" r="4" fill="#E50914"/>
  <text x="68" y="87" text-anchor="middle" font-size="2.5" fill="#FFFFFF">N</text>
</svg>