<svg width="120" height="120" viewBox="0 0 120 120" fill="none" xmlns="http://www.w3.org/2000/svg">
  <!-- Background gradient -->
  <defs>
    <linearGradient id="bg4" x1="0%" y1="0%" x2="100%" y2="100%">
      <stop offset="0%" style="stop-color:#667eea;stop-opacity:1" />
      <stop offset="100%" style="stop-color:#764ba2;stop-opacity:1" />
    </linearGradient>
  </defs>
  
  <!-- Background circle -->
  <circle cx="60" cy="60" r="60" fill="url(#bg4)"/>
  
  <!-- Face -->
  <circle cx="60" cy="45" r="18" fill="#FDBCB4"/>
  
  <!-- Hair (graying) -->
  <path d="M42 35 Q60 25 78 35 Q78 40 75 38 Q65 30 55 30 Q45 30 42 35" fill="#808080"/>
  
  <!-- Eyes -->
  <circle cx="54" cy="42" r="2" fill="#2D1B14"/>
  <circle cx="66" cy="42" r="2" fill="#2D1B14"/>
  
  <!-- Glasses (executive style) -->
  <rect x="48" y="38" width="12" height="8" rx="2" fill="none" stroke="#1F2937" stroke-width="1.5"/>
  <rect x="60" y="38" width="12" height="8" rx="2" fill="none" stroke="#1F2937" stroke-width="1.5"/>
  <line x1="60" y1="42" x2="60" y2="42" stroke="#1F2937" stroke-width="1"/>
  
  <!-- Nose -->
  <circle cx="60" cy="47" r="1" fill="#F4A688"/>
  
  <!-- Mouth -->
  <path d="M57 50 Q60 52 63 50" stroke="#2D1B14" stroke-width="1" fill="none"/>
  
  <!-- Executive suit -->
  <path d="M45 75 Q60 70 75 75 L75 120 L45 120 Z" fill="#1F2937"/>
  <path d="M50 75 Q60 72 70 75 L70 120 L50 120 Z" fill="#FFFFFF"/>
  <path d="M58 75 L62 75 L62 120 L58 120 Z" fill="#1E40AF"/>
  
  <!-- Executive pin -->
  <circle cx="68" cy="85" r="4" fill="#FFD700"/>
  <text x="68" y="87" text-anchor="middle" font-size="2" fill="#1F2937">J&J</text>
</svg>