<svg width="120" height="120" viewBox="0 0 120 120" fill="none" xmlns="http://www.w3.org/2000/svg">
  <!-- Background gradient -->
  <defs>
    <linearGradient id="bg5" x1="0%" y1="0%" x2="100%" y2="100%">
      <stop offset="0%" style="stop-color:#ff9a9e;stop-opacity:1" />
      <stop offset="100%" style="stop-color:#fecfef;stop-opacity:1" />
    </linearGradient>
  </defs>
  
  <!-- Background circle -->
  <circle cx="60" cy="60" r="60" fill="url(#bg5)"/>
  
  <!-- Face -->
  <circle cx="60" cy="45" r="18" fill="#FDBCB4"/>
  
  <!-- Hair (blonde) -->
  <path d="M42 35 Q60 20 78 35 Q78 45 75 42 Q70 30 65 32 Q55 32 50 32 Q45 30 42 35" fill="#DAA520"/>
  
  <!-- Eyes -->
  <circle cx="54" cy="42" r="2" fill="#2D1B14"/>
  <circle cx="66" cy="42" r="2" fill="#2D1B14"/>
  
  <!-- Stylish glasses -->
  <circle cx="54" cy="42" r="6" fill="none" stroke="#7C3AED" stroke-width="1.5"/>
  <circle cx="66" cy="42" r="6" fill="none" stroke="#7C3AED" stroke-width="1.5"/>
  <line x1="60" y1="42" x2="60" y2="42" stroke="#7C3AED" stroke-width="1"/>
  
  <!-- Nose -->
  <circle cx="60" cy="47" r="1" fill="#F4A688"/>
  
  <!-- Mouth -->
  <path d="M57 50 Q60 52 63 50" stroke="#2D1B14" stroke-width="1" fill="none"/>
  
  <!-- Professional attire -->
  <path d="M45 75 Q60 70 75 75 L75 120 L45 120 Z" fill="#7C3AED"/>
  <path d="M50 75 Q60 72 70 75 L70 120 L50 120 Z" fill="#FFFFFF"/>
  
  <!-- Data science badge -->
  <circle cx="68" cy="85" r="4" fill="#FFD700"/>
  <text x="68" y="87" text-anchor="middle" font-size="2.5" fill="#7C3AED">PhD</text>
</svg>