<svg width="120" height="120" viewBox="0 0 120 120" fill="none" xmlns="http://www.w3.org/2000/svg">
  <!-- Background gradient -->
  <defs>
    <linearGradient id="bg6" x1="0%" y1="0%" x2="100%" y2="100%">
      <stop offset="0%" style="stop-color:#ffecd2;stop-opacity:1" />
      <stop offset="100%" style="stop-color:#fcb69f;stop-opacity:1" />
    </linearGradient>
  </defs>
  
  <!-- Background circle -->
  <circle cx="60" cy="60" r="60" fill="url(#bg6)"/>
  
  <!-- Face -->
  <circle cx="60" cy="45" r="18" fill="#D2B48C"/>
  
  <!-- Hair (dark brown) -->
  <path d="M42 35 Q60 22 78 35 Q78 45 75 42 Q70 32 65 34 Q55 34 50 34 Q45 32 42 35" fill="#3C2414"/>
  
  <!-- Eyes -->
  <circle cx="54" cy="42" r="2" fill="#2D1B14"/>
  <circle cx="66" cy="42" r="2" fill="#2D1B14"/>
  
  <!-- Eyebrows -->
  <path d="M50 38 Q54 36 58 38" stroke="#3C2414" stroke-width="1.5" fill="none"/>
  <path d="M62 38 Q66 36 70 38" stroke="#3C2414" stroke-width="1.5" fill="none"/>
  
  <!-- Nose -->
  <circle cx="60" cy="47" r="1" fill="#C19A6B"/>
  
  <!-- Mouth -->
  <path d="M57 50 Q60 52 63 50" stroke="#2D1B14" stroke-width="1" fill="none"/>
  
  <!-- Medical coat -->
  <path d="M45 75 Q60 70 75 75 L75 120 L45 120 Z" fill="#FFFFFF"/>
  <path d="M50 75 Q60 72 70 75 L70 120 L50 120 Z" fill="#FFFFFF"/>
  
  <!-- Stethoscope -->
  <path d="M52 80 Q60 85 68 80" stroke="#374151" stroke-width="2" fill="none"/>
  <circle cx="52" cy="80" r="2" fill="#374151"/>
  <circle cx="68" cy="80" r="2" fill="#374151"/>
  
  <!-- Oncology badge -->
  <circle cx="68" cy="90" r="4" fill="#DC2626"/>
  <text x="68" y="92" text-anchor="middle" font-size="2" fill="#FFFFFF">ONC</text>
</svg>