<svg width="120" height="120" viewBox="0 0 120 120" fill="none" xmlns="http://www.w3.org/2000/svg">
  <!-- Background gradient -->
  <defs>
    <linearGradient id="bg2" x1="0%" y1="0%" x2="100%" y2="100%">
      <stop offset="0%" style="stop-color:#4facfe;stop-opacity:1" />
      <stop offset="100%" style="stop-color:#00f2fe;stop-opacity:1" />
    </linearGradient>
  </defs>
  
  <!-- Background circle -->
  <circle cx="60" cy="60" r="60" fill="url(#bg2)"/>
  
  <!-- Face -->
  <circle cx="60" cy="45" r="18" fill="#D2B48C"/>
  
  <!-- Hair -->
  <path d="M42 35 Q60 25 78 35 Q78 40 75 38 Q65 30 55 30 Q45 30 42 35" fill="#2D1B14"/>
  
  <!-- Eyes -->
  <circle cx="54" cy="42" r="2" fill="#2D1B14"/>
  <circle cx="66" cy="42" r="2" fill="#2D1B14"/>
  
  <!-- Glasses -->
  <rect x="48" y="38" width="12" height="8" rx="4" fill="none" stroke="#2D1B14" stroke-width="1"/>
  <rect x="60" y="38" width="12" height="8" rx="4" fill="none" stroke="#2D1B14" stroke-width="1"/>
  <line x1="60" y1="42" x2="60" y2="42" stroke="#2D1B14" stroke-width="1"/>
  
  <!-- Mustache -->
  <path d="M55 48 Q60 50 65 48" stroke="#2D1B14" stroke-width="2" fill="none"/>
  
  <!-- Nose -->
  <circle cx="60" cy="47" r="1" fill="#C19A6B"/>
  
  <!-- Mouth -->
  <path d="M57 52 Q60 54 63 52" stroke="#2D1B14" stroke-width="1" fill="none"/>
  
  <!-- Professional suit -->
  <path d="M45 75 Q60 70 75 75 L75 120 L45 120 Z" fill="#1F2937"/>
  <path d="M50 75 Q60 72 70 75 L70 120 L50 120 Z" fill="#FFFFFF"/>
  <path d="M58 75 L62 75 L62 120 L58 120 Z" fill="#7C3AED"/>
  
  <!-- Professional badge -->
  <circle cx="68" cy="85" r="4" fill="#FFD700"/>
  <text x="68" y="87" text-anchor="middle" font-size="2.5" fill="#1F2937">FDA</text>
</svg>