<svg width="120" height="120" viewBox="0 0 120 120" fill="none" xmlns="http://www.w3.org/2000/svg">
  <!-- Background gradient -->
  <defs>
    <linearGradient id="bgElena" x1="0%" y1="0%" x2="100%" y2="100%">
      <stop offset="0%" style="stop-color:#EC4899;stop-opacity:1" />
      <stop offset="100%" style="stop-color:#BE185D;stop-opacity:1" />
    </linearGradient>
  </defs>
  
  <!-- Background circle -->
  <circle cx="60" cy="60" r="60" fill="url(#bgElena)"/>
  
  <!-- Face -->
  <circle cx="60" cy="45" r="18" fill="#D2B48C"/>
  
  <!-- Hair (creative style) -->
  <path d="M42 35 Q60 18 78 35 Q78 48 75 46 Q70 38 65 40 Q55 40 50 40 Q45 38 42 35" fill="#8B4513"/>
  
  <!-- Eyes -->
  <circle cx="54" cy="42" r="2" fill="#2D1B14"/>
  <circle cx="66" cy="42" r="2" fill="#2D1B14"/>
  
  <!-- Stylish eyebrows -->
  <path d="M50 38 Q54 36 58 38" stroke="#8B4513" stroke-width="1.5" fill="none"/>
  <path d="M62 38 Q66 36 70 38" stroke="#8B4513" stroke-width="1.5" fill="none"/>
  
  <!-- Nose -->
  <circle cx="60" cy="47" r="1" fill="#C19A6B"/>
  
  <!-- Mouth -->
  <path d="M57 50 Q60 52 63 50" stroke="#2D1B14" stroke-width="1" fill="none"/>
  
  <!-- Creative attire -->
  <path d="M45 75 Q60 70 75 75 L75 120 L45 120 Z" fill="#EC4899"/>
  <path d="M50 75 Q60 72 70 75 L70 120 L50 120 Z" fill="#FFFFFF"/>
  
  <!-- Design badge -->
  <circle cx="68" cy="85" r="4" fill="#FFD700"/>
  <text x="68" y="87" text-anchor="middle" font-size="2.5" fill="#EC4899">UX</text>
</svg>