<svg width="120" height="120" viewBox="0 0 120 120" fill="none" xmlns="http://www.w3.org/2000/svg">
  <!-- Background gradient -->
  <defs>
    <linearGradient id="bgMarcus" x1="0%" y1="0%" x2="100%" y2="100%">
      <stop offset="0%" style="stop-color:#3B82F6;stop-opacity:1" />
      <stop offset="100%" style="stop-color:#1D4ED8;stop-opacity:1" />
    </linearGradient>
  </defs>
  
  <!-- Background circle -->
  <circle cx="60" cy="60" r="60" fill="url(#bgMarcus)"/>
  
  <!-- Face -->
  <circle cx="60" cy="45" r="18" fill="#F4D1AE"/>
  
  <!-- Hair (modern cut) -->
  <path d="M42 35 Q60 25 78 35 Q78 42 75 40 Q65 32 55 32 Q45 32 42 35" fill="#1A0F0A"/>
  
  <!-- Eyes -->
  <circle cx="54" cy="42" r="2" fill="#2D1B14"/>
  <circle cx="66" cy="42" r="2" fill="#2D1B14"/>
  
  <!-- Modern glasses -->
  <circle cx="54" cy="42" r="6" fill="none" stroke="#1F2937" stroke-width="1.5"/>
  <circle cx="66" cy="42" r="6" fill="none" stroke="#1F2937" stroke-width="1.5"/>
  <line x1="60" y1="42" x2="60" y2="42" stroke="#1F2937" stroke-width="1"/>
  
  <!-- Nose -->
  <circle cx="60" cy="47" r="1" fill="#E6B887"/>
  
  <!-- Mouth -->
  <path d="M57 50 Q60 52 63 50" stroke="#2D1B14" stroke-width="1" fill="none"/>
  
  <!-- Tech casual attire -->
  <path d="M45 75 Q60 70 75 75 L75 120 L45 120 Z" fill="#3B82F6"/>
  <path d="M50 75 Q60 72 70 75 L70 120 L50 120 Z" fill="#FFFFFF"/>
  
  <!-- Google badge -->
  <circle cx="68" cy="85" r="4" fill="#FFD700"/>
  <text x="68" y="87" text-anchor="middle" font-size="2.5" fill="#3B82F6">G</text>
</svg>