<svg width="120" height="120" viewBox="0 0 120 120" fill="none" xmlns="http://www.w3.org/2000/svg">
  <!-- Background gradient -->
  <defs>
    <linearGradient id="bgRyan" x1="0%" y1="0%" x2="100%" y2="100%">
      <stop offset="0%" style="stop-color:#F59E0B;stop-opacity:1" />
      <stop offset="100%" style="stop-color:#D97706;stop-opacity:1" />
    </linearGradient>
  </defs>
  
  <!-- Background circle -->
  <circle cx="60" cy="60" r="60" fill="url(#bgRyan)"/>
  
  <!-- Face -->
  <circle cx="60" cy="45" r="18" fill="#D2B48C"/>
  
  <!-- Hair (modern style) -->
  <path d="M42 35 Q60 25 78 35 Q78 42 75 40 Q65 32 55 32 Q45 32 42 35" fill="#2D1B14"/>
  
  <!-- Eyes -->
  <circle cx="54" cy="42" r="2" fill="#2D1B14"/>
  <circle cx="66" cy="42" r="2" fill="#2D1B14"/>
  
  <!-- Nose -->
  <circle cx="60" cy="47" r="1" fill="#C19A6B"/>
  
  <!-- Mouth -->
  <path d="M57 50 Q60 52 63 50" stroke="#2D1B14" stroke-width="1" fill="none"/>
  
  <!-- Marketing attire -->
  <path d="M45 75 Q60 70 75 75 L75 120 L45 120 Z" fill="#F59E0B"/>
  <path d="M50 75 Q60 72 70 75 L70 120 L50 120 Z" fill="#FFFFFF"/>
  
  <!-- Spotify badge -->
  <circle cx="68" cy="85" r="4" fill="#1DB954"/>
  <text x="68" y="87" text-anchor="middle" font-size="2.5" fill="#FFFFFF">♪</text>
</svg>